<?xml version="1.0" encoding="UTF-8"?>
<svg version="1.1" xmlns="http://www.w3.org/2000/svg" width="308" height="300">
<path d="M0 0 C101.64 0 203.28 0 308 0 C308 99 308 198 308 300 C206.36 300 104.72 300 0 300 C0 201 0 102 0 0 Z " fill="#FEFCF9" transform="translate(0,0)"/>
<path d="M0 0 C0.66 0 1.32 0 2 0 C5.44094521 6.43307148 6.14158878 11.42453778 5.95703125 18.64453125 C5.93463701 20.1412627 5.91318226 21.63800846 5.89257812 23.13476562 C5.85559064 25.47183565 5.81261035 27.80816192 5.75317383 30.14477539 C5.50704928 40.31541563 5.79518437 47.1675138 11.9375 55.6875 C19.25708372 67.44319507 20.16700021 79.05966591 20.0625 92.5 C20.05798828 93.60859375 20.05347656 94.7171875 20.04882812 95.859375 C20.03713158 98.57297399 20.02074086 101.28645761 20 104 C17.525 104.495 17.525 104.495 15 105 C15.03480469 104.0821875 15.06960937 103.164375 15.10546875 102.21875 C15.32834657 92.11495548 14.43961685 85.13425286 8 77 C5.75245655 74.90588664 3.44922411 72.89396592 1.1171875 70.89453125 C-1.22774008 68.79621045 -3.09179749 66.49534175 -5 64 C-5.99 63.34 -6.98 62.68 -8 62 C-9.78710614 52.29005664 -6.58174099 43.8675224 -3 35 C1.02818931 23.72666465 0.10916991 11.81461019 0 0 Z " fill="#FD7C12" transform="translate(116,6)"/>
<path d="M0 0 C4.51432177 1.50477392 5.43403963 4.60613651 7.57421875 8.6953125 C10.66193653 15.85205015 11.9657916 23.42770611 12.1875 31.1875 C12.92403838 39.84182596 20.00724904 46.15319423 26 51.8125 C35.40057231 60.87992414 42.5920398 74.23339824 43.08984375 87.37109375 C43.18011275 93.63977449 43.18011275 93.63977449 42 96 C41.34 96 40.68 96 40 96 C39.938125 94.88625 39.87625 93.7725 39.8125 92.625 C38.94824077 85.86697299 36.0637501 79.31883598 30.6875 75 C29.800625 74.34 28.91375 73.68 28 73 C28 72.34 28 71.68 28 71 C27.278125 70.71125 26.55625 70.4225 25.8125 70.125 C21.90625 68.5625 21.90625 68.5625 18 67 C18 66.34 18 65.68 18 65 C17.154375 64.979375 16.30875 64.95875 15.4375 64.9375 C10.6803392 63.64009251 8.02558292 60.81740214 5 57 C4.09632985 54.28898956 3.86730169 52.67522863 3.84228516 49.88671875 C3.83202301 49.06155762 3.82176086 48.23639648 3.81118774 47.38623047 C3.80388641 46.49564941 3.79658508 45.60506836 3.7890625 44.6875 C3.76096793 42.78775218 3.73230333 40.88801273 3.703125 38.98828125 C3.66208258 36.0043993 3.62518391 33.02066902 3.59863281 30.03662109 C3.64015241 14.7474095 3.64015241 14.7474095 0 0 Z " fill="#FD7A0E" transform="translate(82,22)"/>
<path d="M0 0 C0.33 0 0.66 0 1 0 C1.4454011 5.34481316 0.5942824 8.44694626 -1.9765625 13.1328125 C-3.19166055 15.34967077 -4.11315508 17.63508021 -5 20 C-5.66 20 -6.32 20 -7 20 C-7.309375 20.99 -7.309375 20.99 -7.625 22 C-9.17691758 25.38600199 -11.18291212 27.89857998 -13.5625 30.7421875 C-17.91413945 37.57709946 -17.4291144 45.60488532 -17.8125 53.4375 C-18.62542642 67.08777912 -19.81151295 81.81151295 -30 92 C-30.639375 93.051875 -31.27875 94.10375 -31.9375 95.1875 C-32.618125 96.115625 -33.29875 97.04375 -34 98 C-35.32 98 -36.64 98 -38 98 C-37.42316338 94.10635283 -35.45178223 91.98810959 -33 89 C-31.54318458 84.62955373 -31.77510609 80.39122318 -31.75 75.8125 C-31.729375 74.89146484 -31.70875 73.97042969 -31.6875 73.02148438 C-31.65287471 66.92310527 -32.58006715 62.59151152 -35 57 C-36.30326794 52.24123252 -37.06906742 47.8881701 -36 43 C-31.16781121 35.53518006 -23.60901777 29.84972932 -17 24 C-9.26994981 17.14899884 -4.52549221 9.22673169 0 0 Z " fill="#FD7D13" transform="translate(192,9)"/>
<path d="M0 0 C1.65 0.33 3.3 0.66 5 1 C5 1.99 5 2.98 5 4 C4.43152344 4.1959375 3.86304687 4.391875 3.27734375 4.59375 C-3.09410891 7.06149126 -7.27881464 10.22157395 -11 16 C-12.28367793 18.94652051 -13.2414116 21.8789506 -14 25 C-14.66 25 -15.32 25 -16 25 C-15.979375 26.175625 -15.95875 27.35125 -15.9375 28.5625 C-15.93052739 32.47413467 -16.35749657 36.14497944 -17 40 C-17.66 40 -18.32 40 -19 40 C-19.0825 40.5775 -19.165 41.155 -19.25 41.75 C-20.45381807 45.36145421 -22.49824028 47.17466687 -25.81958008 49 C-32.74474664 52.23991802 -39.5758344 53.33011448 -47.09179688 54.421875 C-52.72692521 55.32536482 -56.35837949 56.48612136 -61 60 C-62.64483943 60.69955823 -64.31174887 61.35039985 -66 61.9375 C-70.51612807 63.64980838 -73.50610273 65.68999206 -77 69 C-76.10561547 62.96290444 -71.4700675 59.28719321 -66.8125 55.8125 C-61.86612652 52.28222538 -57.99272225 50.78593079 -52 50 C-52 49.34 -52 48.68 -52 48 C-50.948125 47.608125 -49.89625 47.21625 -48.8125 46.8125 C-43.06083608 44.33754159 -40.09938426 40.26450436 -37 35 C-35.55288716 32.65860395 -34.09619232 30.32607434 -32.625 28 C-32.25117187 27.39671875 -31.87734375 26.7934375 -31.4921875 26.171875 C-25.050799 16.02448216 -14.15957937 6.62657562 -3 2 C-2.01 2 -1.02 2 0 2 C0 1.34 0 0.68 0 0 Z " fill="#FD7B0F" transform="translate(123,184)"/>
<path d="M0 0 C3.51441371 1.17147124 3.70218066 1.84295713 5.5625 4.875 C8.69714902 9.29992122 11.7446893 10.35791941 16.92578125 11.52734375 C19 12 19 12 20 13 C21.99067543 13.08519592 23.98406667 13.1081841 25.9765625 13.10546875 C27.81927734 13.12770508 27.81927734 13.12770508 29.69921875 13.15039062 C32.29285811 13.17490761 34.88675379 13.18046895 37.48046875 13.16601562 C44.36784253 13.2845158 48.99517364 13.48085984 53.97412109 18.52075195 C55 20 55 20 55 22 C55.66 22 56.32 22 57 22 C57.49628906 23.01578125 57.99257812 24.0315625 58.50390625 25.078125 C68.15774878 47.29173744 68.15774878 47.29173744 86 62 C86 62.66 86 63.32 86 64 C75.04428815 62.33074093 67.29907652 52.93544366 60.5 44.875 C53.26168762 36.50158863 44.82044407 32.51126544 34.25 29.9375 C30.43960658 29.00913605 27.31974928 28.21316619 24 26 C24 25.34 24 24.68 24 24 C23.28457031 23.92007813 22.56914062 23.84015625 21.83203125 23.7578125 C18.30651832 22.81443387 16.45634645 21.23913806 13.6875 18.875 C12.73488281 18.06289062 11.78226563 17.25078125 10.80078125 16.4140625 C9.87652344 15.61742187 8.95226562 14.82078125 8 14 C7.18917969 13.34773437 6.37835938 12.69546875 5.54296875 12.0234375 C4.46982422 11.14558594 4.46982422 11.14558594 3.375 10.25 C2.74335938 9.73953125 2.11171875 9.2290625 1.4609375 8.703125 C-0.41447935 6.51681017 -0.7342334 4.84095335 -1 2 C-0.67 1.34 -0.34 0.68 0 0 Z " fill="#FD7C11" transform="translate(193,163)"/>
<path d="M0 0 C1.65 0 3.3 0 5 0 C4.47731534 2.76276177 3.89130413 5.3260876 3 8 C2.2223714 19.35699442 4.90385176 29.9685386 12 39 C12.69313908 40.65583225 13.36474424 42.32110979 14 44 C14.495 44.495 14.495 44.495 15 45 C15.95007983 51.55339158 15.79018835 56.7027868 11.875 62.1875 C10.59722411 63.80275299 9.30576231 65.40728589 8 67 C0.03448461 78.12491453 -4.05820235 88.75369327 -7 102 C-7.66 101.67 -8.32 101.34 -9 101 C-9.35538418 91.89821627 -9.18399335 82.77599003 -4 75 C-0.30501681 65.85977844 -1.23850289 55.88874563 -4 46.625 C-8.32190205 31.8355125 -7.42972282 13.6331807 0 0 Z " fill="#FD790C" transform="translate(157,192)"/>
<path d="M0 0 C1.32 0 2.64 0 4 0 C3.38394021 4.00438862 1.24558699 6.70179411 -1 10 C-4.23471263 19.70413788 -2.90552705 32.29412779 1.078125 41.48828125 C2.84862701 46.31214902 3.14952413 50.99536444 2 56 C-0.18903314 59.30611706 -2.89790177 61.56530673 -6 64 C-7.27638574 65.09774352 -8.54731718 66.20186332 -9.8125 67.3125 C-10.79283203 68.16328125 -10.79283203 68.16328125 -11.79296875 69.03125 C-24.66323389 80.40591573 -24.66323389 80.40591573 -31.875 95.625 C-31.91625 96.40875 -31.9575 97.1925 -32 98 C-32.99 98 -33.98 98 -35 98 C-35.67090715 90.75420281 -33.58125682 86.24161903 -30 80 C-29.34 80 -28.68 80 -28 80 C-27.89558594 79.43796875 -27.79117188 78.8759375 -27.68359375 78.296875 C-26.87386765 75.57619529 -25.63796662 73.60742193 -24.0625 71.25 C-23.53785156 70.45078125 -23.01320313 69.6515625 -22.47265625 68.828125 C-21.98667969 68.22484375 -21.50070313 67.6215625 -21 67 C-20.34 67 -19.68 67 -19 67 C-16.94132358 61.00659526 -16.64548575 55.43223512 -16.5 49.125 C-16.12194811 32.86876888 -12.00771557 12.00771557 0 0 Z " fill="#FE7A0E" transform="translate(146,192)"/>
<path d="M0 0 C0 1.32 0 2.64 0 4 C-8.415 4.495 -8.415 4.495 -17 5 C-17.33 5.99 -17.66 6.98 -18 8 C-19.6770802 8.43604085 -21.35466408 8.87026827 -23.03515625 9.29296875 C-29.22205513 11.51926835 -32.92714428 17.15409571 -36.578125 22.296875 C-38.42038965 24.50354365 -40.22186582 25.34632137 -43 26 C-43 26.66 -43 27.32 -43 28 C-49.76465592 30.25488531 -55.25059962 28.54637117 -61.625 26.125 C-62.36234375 25.85558594 -63.0996875 25.58617187 -63.859375 25.30859375 C-66.81945288 24.22110994 -69.74858193 23.1075387 -72.6484375 21.8671875 C-79.19947254 19.4513573 -85.99515659 19.88242736 -92.875 19.9375 C-93.94492188 19.94201172 -95.01484375 19.94652344 -96.1171875 19.95117188 C-98.74484986 19.96290251 -101.37239538 19.97931772 -104 20 C-101.11260956 16.85151293 -99.21595444 16.38721776 -94.9375 15.8125 C-94.30336182 15.72629395 -93.66922363 15.64008789 -93.01586914 15.55126953 C-88.55208488 15.03778712 -84.20838047 15.00471491 -79.71875 15.16015625 C-65.88965107 15.62544749 -57.20931113 15.48844636 -46 7 C-34.02325716 -0.20743275 -13.50837475 -4.50279158 0 0 Z " fill="#FD7C11" transform="translate(113,166)"/>
<path d="M0 0 C1.32 0 2.64 0 4 0 C4.33 5.94 4.66 11.88 5 18 C5.66 18 6.32 18 7 18 C7.60714844 19.32837891 7.60714844 19.32837891 8.2265625 20.68359375 C9.98695116 23.9755981 11.84340226 26.33649629 14.375 29.0625 C15.56802734 30.35220703 15.56802734 30.35220703 16.78515625 31.66796875 C19.78972072 34.83150489 22.77105431 37.96029827 26.10546875 40.78125 C29.10492605 44.29401649 28.53899581 47.39063278 28.3984375 51.83984375 C27.89786959 55.8100343 26.66393857 59.00335327 25.015625 62.625 C23.7443484 65.59783144 23.09465954 68.53316668 22.4921875 71.69921875 C22 74 22 74 20.953125 77.0234375 C19.43828797 82.22763568 19.78832431 87.56694087 19.875 92.9375 C19.88402344 94.00291016 19.89304688 95.06832031 19.90234375 96.16601562 C19.92576586 98.77758034 19.95856548 101.38866937 20 104 C19.34 104 18.68 104 18 104 C13.83537912 93.44962711 14.73484925 81.32120961 14.5703125 70.16796875 C14.35302826 61.79347213 13.37450782 55.3713514 8.8125 48.1875 C7 45 7 45 7 42 C6.34 42 5.68 42 5 42 C1.73705912 33.77171431 0.84293107 26.83076431 1 18 C0.34 18 -0.32 18 -1 18 C-1.02690844 15.37493198 -1.04679404 12.75013827 -1.0625 10.125 C-1.07087891 9.37863281 -1.07925781 8.63226563 -1.08789062 7.86328125 C-1.11328125 2.2265625 -1.11328125 2.2265625 0 0 Z " fill="#FD7E16" transform="translate(168,189)"/>
<path d="M0 0 C0 0.99 0 1.98 0 3 C-1.051875 3.2784375 -1.051875 3.2784375 -2.125 3.5625 C-7.07138 6.03569 -9.9807441 10.47111615 -13 15 C-13.86380806 19.77309324 -14.0624306 24.41120746 -14.140625 29.2578125 C-14.15996094 30.37800781 -14.17929688 31.49820313 -14.19921875 32.65234375 C-14.23318457 34.97508361 -14.25131073 37.29810701 -14.25390625 39.62109375 C-14.46156495 49.09688814 -14.46156495 49.09688814 -17.375 52.671875 C-22.20144647 56.95247336 -27.12660531 59.63373892 -33.046875 62.0703125 C-35.17071982 62.94768237 -35.17071982 62.94768237 -37 65 C-38.155 65.37125 -39.31 65.7425 -40.5 66.125 C-48.53602752 69.00860186 -54.93356976 75.29443056 -60 82 C-60.763125 82.94875 -61.52625 83.8975 -62.3125 84.875 C-62.869375 85.57625 -63.42625 86.2775 -64 87 C-63.52766697 75.66400737 -53.77195773 68.32375647 -45.9375 61.09765625 C-41.30955882 57 -41.30955882 57 -39 57 C-38.731875 56.278125 -38.46375 55.55625 -38.1875 54.8125 C-37 52 -37 52 -35.47265625 49.6640625 C-33.87633774 46.77629268 -33.55745575 44.82243527 -33.25 41.5625 C-31.56621418 30.26304477 -25.40877035 20.50108906 -18 12 C-17.31421875 11.19433594 -16.6284375 10.38867188 -15.921875 9.55859375 C-7.21060382 -0.49163208 -7.21060382 -0.49163208 0 0 Z " fill="#FD7A0D" transform="translate(140,190)"/>
<path d="M0 0 C-1.25125384 3.75376152 -2.5652404 4.24073289 -6 6 C-6.66 6 -7.32 6 -8 6 C-8.33 6.99 -8.66 7.98 -9 9 C-14.24442452 11.84278636 -20.16483273 12.3264476 -26.00537109 12.77050781 C-38.2601925 13.7723805 -44.11749319 16.8187441 -52 26 C-61.87880964 35.5418305 -79.04900004 46.29918333 -93.25 46.0625 C-95.10625 46.0315625 -95.10625 46.0315625 -97 46 C-97.33 44.68 -97.66 43.36 -98 42 C-94.7 42 -91.4 42 -88 42 C-88 41.34 -88 40.68 -88 40 C-87.41992188 39.731875 -86.83984375 39.46375 -86.2421875 39.1875 C-76.16914192 34.13435502 -71.98319135 25.72313437 -66.9765625 16.015625 C-64.60862484 11.5828457 -62.05600732 7.95104607 -57.08023071 6.40255737 C-53.62850247 5.73459365 -50.14830995 5.94235754 -46.6484375 6.0078125 C-44.97526664 6.02534421 -43.30208914 6.04225099 -41.62890625 6.05859375 C-39.00908719 6.08939215 -36.38960687 6.1247399 -33.77001953 6.17138672 C-21.85032273 6.3722678 -10.24139674 0 0 0 Z " fill="#FD7709" transform="translate(282,77)"/>
<path d="M0 0 C3.3907519 1.45317939 5.41300312 3.41300312 8 6 C18.3944617 9.46482057 31.23861344 7.52266277 41.30078125 3.90234375 C46.17900458 2.27156287 50.09628964 2.19360258 54.9140625 4.234375 C58.14266161 6.08162411 60.3553187 8.02161752 62.9375 10.6875 C63.79859375 11.574375 64.6596875 12.46125 65.546875 13.375 C67.63805656 15.61269746 69.6812083 17.87393841 71.6875 20.1875 C72.79047089 21.4593713 73.89459571 22.73024304 75 24 C75.52722656 24.60714844 76.05445313 25.21429688 76.59765625 25.83984375 C81.99357743 31.66947963 89.11638229 36.41219878 97 38 C97 38.66 97 39.32 97 40 C86.9760233 39.36355704 80.12942478 35.94888697 71.9375 30.375 C71.35258789 29.97861328 70.76767578 29.58222656 70.16503906 29.17382812 C68.73671735 28.1705109 67.36259059 27.09091488 66 26 C66 25.34 66 24.68 66 24 C60.00943852 22.29038061 54.52298417 21.67480831 48.3125 21.5 C36.02872667 20.98996275 25.89200629 20.03606743 15 14 C13.824375 13.525625 12.64875 13.05125 11.4375 12.5625 C6.94420294 10.52009224 3.03322469 7.82600098 -1 5 C-0.67 3.35 -0.34 1.7 0 0 Z " fill="#FD7B0F" transform="translate(195,151)"/>
<path d="M0 0 C0 0.66 0 1.32 0 2 C0.72058594 2.09410156 1.44117188 2.18820313 2.18359375 2.28515625 C5.44673561 3.11338782 7.36948089 4.43542552 10.0625 6.4375 C12.96566682 8.5802071 15.71682807 10.49110574 19 12 C19 12.66 19 13.32 19 14 C19.7425 14.28875 20.485 14.5775 21.25 14.875 C24 16 24 16 25.78125 16.97265625 C32.83874553 20.24047548 41.30428873 21.2455185 49 22 C49 22.66 49 23.32 49 24 C39.05543596 26.65188374 30.48366494 24.32968801 21 21 C21 20.34 21 19.68 21 19 C16.10515466 18.21050882 11.410277 17.83800142 6.4375 17.8125 C4.54837891 17.79123047 4.54837891 17.79123047 2.62109375 17.76953125 C-0.98409882 17.99898795 -3.61563283 18.80368624 -7 20 C-22.31918432 22.90277942 -39.24481934 22.08543334 -54 17 C-54.66 16.34 -55.32 15.68 -56 15 C-56 13.68 -56 12.36 -56 11 C-55.01 11 -54.02 11 -53 11 C-52.67 11.66 -52.34 12.32 -52 13 C-45.2490894 15.41546342 -36.50470185 14.9113004 -29.9921875 12.046875 C-25.13582917 9.49490631 -20.37688651 6.72864474 -15.9375 3.5 C-10.62996607 -0.26663698 -6.42804609 -0.59275015 0 0 Z " fill="#FD7A0E" transform="translate(250,129)"/>
<path d="M0 0 C0.66 0 1.32 0 2 0 C2.20753906 0.65226563 2.41507813 1.30453125 2.62890625 1.9765625 C4.84666987 8.26795888 7.2802223 12.40357365 13 16 C13.99 16.33 14.98 16.66 16 17 C16 17.66 16 18.32 16 19 C16.845625 19.103125 17.69125 19.20625 18.5625 19.3125 C21.67080084 19.93416017 24.08684053 20.92761766 26.94140625 22.25 C29.4801355 23.17492603 31.95480154 23.53607419 34.625 23.9375 C39.06693842 24.66458483 41.87693973 25.55386453 45 29 C45 29.66 45 30.32 45 31 C45.66 31 46.32 31 47 31 C49.10178212 37.325752 51.04575902 43.51471245 52 50.125 C53.78629065 61.8436826 58.5538711 73.57207397 67 82 C67 82.66 67 83.32 67 84 C59.85229153 80.78666615 55.48873697 74.82901704 52 68 C50.7919048 65.79153638 49.58354998 63.58321478 48.375 61.375 C45.16371876 55.47129082 45.16371876 55.47129082 44.06640625 52.3125 C42.71763137 49.38768414 41.24181222 48.38262881 38.5625 46.625 C37.67175781 46.03203125 36.78101563 45.4390625 35.86328125 44.828125 C32.99901775 42.99937286 30.12619586 41.18491805 27.25 39.375 C19.34693149 34.35383585 13.37154014 28.70284309 8 21 C8 20.34 8 19.68 8 19 C7.34 19 6.68 19 6 19 C4.7109375 17.3203125 4.7109375 17.3203125 3.375 15.125 C2.92898437 14.40570313 2.48296875 13.68640625 2.0234375 12.9453125 C1 11 1 11 1 9 C0.34 9 -0.32 9 -1 9 C-1.625 5.625 -1.625 5.625 -2 2 C-1.34 1.34 -0.68 0.68 0 0 Z " fill="#FD790D" transform="translate(188,173)"/>
<path d="M0 0 C1.17820313 0.44085938 2.35640625 0.88171875 3.5703125 1.3359375 C5.55035495 2.10829448 7.52425617 2.8971433 9.484375 3.71875 C20.04124494 7.7207007 31.78725919 6.83376499 42.875 6.625 C42.875 7.285 42.875 7.945 42.875 8.625 C36.48650355 12.09304093 30.79055503 12.01279914 23.625 11.875 C22.53703125 11.86984375 21.4490625 11.8646875 20.328125 11.859375 C12.3408801 11.78029337 12.3408801 11.78029337 8.875 10.625 C-0.81796795 9.1619105 -9.28095029 15.36218182 -17.375 20.0625 C-20.125 21.625 -20.125 21.625 -22.125 21.625 C-22.125 22.285 -22.125 22.945 -22.125 23.625 C-34.70938623 27.34714241 -47.12655859 26.93738552 -60.125 26.625 C-60.125 24.975 -60.125 23.325 -60.125 21.625 C-58.87396484 21.69460937 -58.87396484 21.69460937 -57.59765625 21.765625 C-44.73498543 22.17817343 -37.53168092 18.22317281 -28.125 9.625 C-26.20144543 7.60039566 -24.37522282 5.53988907 -22.59765625 3.38671875 C-16.25730484 -4.19815787 -8.98782085 -3.41734727 0 0 Z " fill="#FD7D14" transform="translate(251.125,107.375)"/>
<path d="M0 0 C10.42065012 4.55903443 15.81607126 15.06586023 19.75390625 25.09765625 C21.6167871 29.43659191 23.91949984 33.11764956 27 36.6875 C27.495 37.26886719 27.99 37.85023437 28.5 38.44921875 C31.72201357 41.7803109 34.54990673 42.40665423 39 43 C39 43.66 39 44.32 39 45 C39.66 45 40.32 45 41 45 C41 45.66 41 46.32 41 47 C41.87785156 47.42345703 41.87785156 47.42345703 42.7734375 47.85546875 C54.04067484 53.64722409 63.97980017 66.40864429 69 78 C69.1484375 80.78125 69.1484375 80.78125 69 83 C67.515 83.495 67.515 83.495 66 84 C65.67 83.01 65.34 82.02 65 81 C61.55215506 73.01977675 54.74450803 68.31907487 47 65 C47 64.34 47 63.68 47 63 C45.783125 62.896875 44.56625 62.79375 43.3125 62.6875 C39.23251367 62.21473968 35.215471 61.55468495 31.1875 60.75 C30.10855469 60.53859375 29.02960938 60.3271875 27.91796875 60.109375 C24.35515236 58.75483704 23.03674431 57.17594028 21 54 C21 53.34 21 52.68 21 52 C20.34 52 19.68 52 19 52 C16.61005524 43.65773999 15.4053172 35.66540227 15 27 C14.34 27 13.68 27 13 27 C12.92523438 26.39414063 12.85046875 25.78828125 12.7734375 25.1640625 C11.27289505 15.60178217 6.97986044 8.56928042 0 2 C0 1.34 0 0.68 0 0 Z " fill="#FD7C12" transform="translate(49,42)"/>
<path d="M0 0 C0.66 0 1.32 0 2 0 C0.85028523 9.09917116 -7.27689748 17.16511225 -14 23 C-15.70559192 24.29528443 -17.41408646 25.58675297 -19.125 26.875 C-27.09770027 33.19984733 -29.38819526 39.77013213 -30.73828125 49.69140625 C-30.82464844 50.45324219 -30.91101563 51.21507812 -31 52 C-31.66 52 -32.32 52 -33 52 C-33.33 54.31 -33.66 56.62 -34 59 C-34.66 59 -35.32 59 -36 59 C-36.10441406 59.55558594 -36.20882812 60.11117187 -36.31640625 60.68359375 C-39.19582437 70.44070771 -48.66657216 81.44438144 -57 87 C-59.6875 86.625 -59.6875 86.625 -62 86 C-62 85.34 -62 84.68 -62 84 C-60.6078125 83.4121875 -60.6078125 83.4121875 -59.1875 82.8125 C-55.74078196 80.85260151 -54.83913242 79.40239497 -53 76 C-52.34 76 -51.68 76 -51 76 C-48.66143978 67.2115398 -48.59817685 58.64972685 -48.43359375 49.59765625 C-48.40394531 48.43621094 -48.37429687 47.27476563 -48.34375 46.078125 C-48.32505859 45.03043945 -48.30636719 43.98275391 -48.28710938 42.90332031 C-47.82729964 38.2536117 -46.50905582 34.96867858 -42.9375 31.9375 C-38.38251837 28.24194887 -32.96848928 25 -27 25 C-27 24.34 -27 23.68 -27 23 C-26.31035156 22.64808594 -25.62070313 22.29617187 -24.91015625 21.93359375 C-15.40482228 16.93970773 -6.85788284 11.67710491 -1.375 2.1875 C-0.92125 1.465625 -0.4675 0.74375 0 0 Z " fill="#FD7A0F" transform="translate(227,22)"/>
<path d="M0 0 C0.66 0 1.32 0 2 0 C2.29599372 8.2056037 1.43794854 15.92437827 0 24 C-0.66 24 -1.32 24 -2 24 C-2.13277344 24.69867187 -2.26554687 25.39734375 -2.40234375 26.1171875 C-2.57894531 27.02726562 -2.75554687 27.93734375 -2.9375 28.875 C-3.19853516 30.23238281 -3.19853516 30.23238281 -3.46484375 31.6171875 C-4 34 -4 34 -5 36 C-5.57696866 43.01238828 -4.96641386 49.00886961 -2.734375 55.65234375 C1.62191952 69.57858314 -0.12842606 87.11880867 -5.8046875 100.35546875 C-7 102 -7 102 -9.1328125 102.73828125 C-9.74898437 102.82464844 -10.36515625 102.91101563 -11 103 C-10.42415568 100.61435923 -9.77772405 98.33317216 -9 96 C-7.94460004 81.72614808 -11.10268534 73.22122513 -19.29296875 61.56640625 C-22.12473223 57.30904101 -22.33025979 54.03646173 -22 49 C-20.14215483 43.20543467 -17.71201228 38.73168939 -14.1875 33.8125 C-9.5841389 27.16413264 -6.08938601 20.49384849 -3 13 C-2.63132813 12.14277344 -2.26265625 11.28554687 -1.8828125 10.40234375 C-1.03667782 8.09980911 -0.6222634 6.11892346 -0.375 3.6875 C-0.25125 2.470625 -0.1275 1.25375 0 0 Z " fill="#FD7B10" transform="translate(154,4)"/>
<path d="M0 0 C10.8603244 -0.39097168 19.52116024 0.21215376 29.3125 5.1875 C37.91306477 9.12437824 47.38850145 7.30785944 56.1484375 4.75390625 C69.75070272 1.15769093 85.8519751 1.88687921 99 7 C99 7.66 99 8.32 99 9 C99.99 9 100.98 9 102 9 C102 9.99 102 10.98 102 12 C100.33388095 12.042721 98.66617115 12.04063832 97 12 C96.505 11.505 96.505 11.505 96 11 C83.44937675 9.73042828 73.2273096 12.31103748 63.375 20.25 C62.59898438 20.93578125 61.82296875 21.6215625 61.0234375 22.328125 C57.66770169 25.10081791 54.41188001 25.32451044 50.140625 25.30078125 C46.50411149 24.78981129 44.0281955 23.018797 41 21 C41 20.34 41 19.68 41 19 C40.27554688 18.73574219 39.55109375 18.47148437 38.8046875 18.19921875 C35.96762305 16.98615637 33.67222616 15.54635955 31.125 13.8125 C21.61214812 7.67600445 11.38106124 2.31216941 0 1 C0 0.67 0 0.34 0 0 Z " fill="#FE780B" transform="translate(7,146)"/>
<path d="M0 0 C0.66 0 1.32 0 2 0 C1.29838239 5.0953541 -2.21068579 7.46145586 -5.91796875 10.69140625 C-11.99102304 15.2404241 -18.91911939 18.25660339 -25.87109375 21.2265625 C-33.77067465 24.76153477 -38.27316047 30.04421495 -41.875 37.875 C-48.4714211 51.87499922 -62.70498396 63.39180441 -77 69 C-79.37890625 68.6796875 -79.37890625 68.6796875 -81 68 C-81 67.34 -81 66.68 -81 66 C-79.989375 65.649375 -78.97875 65.29875 -77.9375 64.9375 C-73.29895203 62.97105674 -70.35490374 59.65385556 -67 56 C-66.20529297 55.26716797 -66.20529297 55.26716797 -65.39453125 54.51953125 C-61.17493863 49.92171184 -60.77429225 42.7191269 -60.0625 36.8125 C-59.06034575 29.23523618 -56.78456376 25.03785563 -50.82910156 20.14819336 C-47.42757899 18.01293433 -43.6641657 17.65411019 -39.75 17.0625 C-26.97995911 14.79481244 -13.37268591 12.34162875 -3.53125 3.3203125 C-2 2 -2 2 0 2 C0 1.34 0 0.68 0 0 Z " fill="#FD7709" transform="translate(257,46)"/>
<path d="M0 0 C0.495 1.98 0.495 1.98 1 4 C0.23816406 4.06316406 -0.52367188 4.12632812 -1.30859375 4.19140625 C-9.30640452 5.13996059 -14.46577339 7.06309645 -20 13 C-24.809968 19.19544791 -28.65093222 25.81017229 -31.89453125 32.94140625 C-33.84114772 36.56637756 -36.19748947 38.4900916 -40 40 C-43.13769531 40.1953125 -43.13769531 40.1953125 -46.828125 40.125 C-48.19246174 40.1077156 -49.55680105 40.0906332 -50.92114258 40.07373047 C-51.98360703 40.05508942 -51.98360703 40.05508942 -53.0675354 40.03607178 C-72.84122785 38.62719828 -72.84122785 38.62719828 -91 44 C-91.99 43.67 -92.98 43.34 -94 43 C-90.49632473 38.99416931 -85.87435303 37.79621828 -81 36 C-79.515 35.4121875 -79.515 35.4121875 -78 34.8125 C-75.29754023 34.08058381 -73.02504083 33.81890813 -70.25 33.625 C-62.7069864 32.98788271 -53.60853033 30.0335953 -48.44140625 24.2578125 C-47.38535015 22.9966232 -46.34748688 21.71988434 -45.33203125 20.42578125 C-44.89246094 19.95527344 -44.45289063 19.48476562 -44 19 C-43.34 19 -42.68 19 -42 19 C-42 18.34 -42 17.68 -42 17 C-39.98828125 15.37890625 -39.98828125 15.37890625 -37.3125 13.5625 C-36.44238281 12.96566406 -35.57226562 12.36882812 -34.67578125 11.75390625 C-33.79277344 11.17511719 -32.90976563 10.59632813 -32 10 C-31.14792969 9.43152344 -30.29585937 8.86304688 -29.41796875 8.27734375 C-27 7 -27 7 -23 7 C-23 6.34 -23 5.68 -23 5 C-20.93847611 4.35105763 -18.87573742 3.7059736 -16.8125 3.0625 C-15.66394531 2.70285156 -14.51539062 2.34320313 -13.33203125 1.97265625 C-8.76607917 0.63980506 -4.75936401 -0.13598183 0 0 Z " fill="#FD790C" transform="translate(119,176)"/>
<path d="M0 0 C9.10453542 -0.09314944 14.49669209 2.51364437 21.75 7.8125 C25.16079347 10.21678948 28.5795269 12.60951286 32 15 C32.59240479 15.43683105 33.18480957 15.87366211 33.79516602 16.32373047 C39.0567989 19.85459416 44.34838325 19.5081585 50.4375 19.5 C60.5327413 19.67817854 69.36956974 20.95508455 79 24 C79 24.66 79 25.32 79 26 C79.78375 26.04125 80.5675 26.0825 81.375 26.125 C87.61862954 27.63208299 92.70339238 31.46892825 98 35 C98.1875 37.625 98.1875 37.625 98 40 C95.48728801 38.88323912 93.6807446 37.72986081 91.5625 35.9375 C85.82774901 31.60146876 77.87206001 32.65853118 71 33 C67.33216019 33.72632589 67.33216019 33.72632589 64 35 C50.60049254 39.61663702 50.60049254 39.61663702 45 38 C38.41052329 33.62132492 33.3158025 27.2197502 28.03344727 21.38720703 C19.86981984 12.40477051 11.67558966 5.89186322 0 2 C0 1.34 0 0.68 0 0 Z " fill="#FD780A" transform="translate(11,108)"/>
<path d="M0 0 C0.06316406 0.60585937 0.12632812 1.21171875 0.19140625 1.8359375 C1.58311782 11.35817456 6.54793085 18.66690786 14.046875 24.62890625 C18.94441923 28.0669823 24.06868615 31.05190048 29.4375 33.6875 C32.41897491 35.21459691 34.45481212 36.41531435 35.5703125 39.65771484 C36.14942146 42.81451675 36.09214326 45.82976754 36.0625 49.0390625 C36.05871338 49.71995941 36.05492676 50.40085632 36.05102539 51.10238647 C36.03479908 53.99948726 36.0068902 56.8964436 35.97949219 59.79345703 C35.2086838 74.71630468 35.2086838 74.71630468 39 88.8125 C40.50213485 91.88207991 41.55777095 94.57272485 42 98 C35.99345233 93.05343133 31.88277151 85.77735172 30.46875 78.125 C30.25332634 75.41681681 30.123713 72.71370442 30 70 C28.89917377 59.70494902 24.41197224 53.06722934 17 46 C10.40141653 39.40141653 5.40163078 32.76420166 2 24 C2 23.01 2 22.02 2 21 C1.34 21 0.68 21 0 21 C-2.60900601 14.35441866 -3.6143354 8.11484687 -4 1 C-2 0 -2 0 0 0 Z " fill="#FD7709" transform="translate(182,182)"/>
<path d="M0 0 C11.92028998 3.45015629 20.40582477 13.8587562 27.625 23.5 C30.67243583 26.70782719 32.72181444 27.16114009 37 28 C37 28.66 37 29.32 37 30 C38.32 30 39.64 30 41 30 C56.82123841 31.59334458 71.27804239 44.09192572 82.19921875 54.60546875 C84.26522716 57.35267733 84.41114966 58.64525716 84 62 C83.01 62 82.02 62 81 62 C80.67 61.01 80.34 60.02 80 59 C78.35360035 57.64172029 76.68704193 56.30745749 75 55 C74.67 54.34 74.34 53.68 74 53 C71.97536745 52.34786708 71.97536745 52.34786708 70 52 C70 51.34 70 50.68 70 50 C64.50968856 49.33044982 59.07894805 48.93497671 53.546875 48.859375 C52.433125 48.84003906 51.319375 48.82070312 50.171875 48.80078125 C47.87518055 48.76669788 45.57819588 48.7486804 43.28125 48.74609375 C33.90864614 48.5390246 33.90864614 48.5390246 30.34765625 45.78515625 C28.04074443 43.0483374 26.8423346 41.04745088 25.6875 37.6875 C20.65477823 24.6729456 13.94046621 13.82028786 4 4 C3.24332031 3.24203125 2.48664062 2.4840625 1.70703125 1.703125 C1.14371094 1.14109375 0.58039062 0.5790625 0 0 Z " fill="#FD790D" transform="translate(28,74)"/>
<path d="M0 0 C1.65 0 3.3 0 5 0 C4.47731534 2.76276177 3.89130413 5.3260876 3 8 C2.48222797 15.23676719 3.29289394 21.97342953 5 29 C-0.35035157 24.11743873 -0.40988299 16.8484632 -1 10 C-1.66 10 -2.32 10 -3 10 C-3.33 20.89 -3.66 31.78 -4 43 C-8.67684381 33.64631239 -6.2389633 18.9277109 -4 9 C-2.88251733 5.86507724 -1.59205492 2.9213435 0 0 Z " fill="#FDA75F" transform="translate(157,192)"/>
<path d="M0 0 C4.56651056 1.52217019 5.52892773 4.8712988 7.703125 8.98828125 C9.47876937 13.11184092 9.85355205 16.53333743 10 21 C8 20 8 20 7 17 C5.99704914 30.34282847 5.88472983 43.62334 6 57 C3.96343581 53.94515371 3.74906045 53.32497043 3.72875977 49.88671875 C3.71857315 49.06155762 3.70838654 48.23639648 3.69789124 47.38623047 C3.69575119 46.49564941 3.69361115 45.60506836 3.69140625 44.6875 C3.66622059 42.78775769 3.64082299 40.88801818 3.61523438 38.98828125 C3.5866513 36.00440371 3.56263053 33.02057555 3.54370117 30.03662109 C3.63044648 14.74715948 3.63044648 14.74715948 0 0 Z " fill="#FDA155" transform="translate(82,22)"/>
<path d="M0 0 C-1.25125384 3.75376152 -2.5652404 4.24073289 -6 6 C-6.66 6 -7.32 6 -8 6 C-8.33 6.99 -8.66 7.98 -9 9 C-13.725109 11.41726629 -18.71529678 12.40651563 -24 12 C-24 11.67 -24 11.34 -24 11 C-22.35 11 -20.7 11 -19 11 C-19 10.34 -19 9.68 -19 9 C-38.8 8.505 -38.8 8.505 -59 8 C-54.57391921 5.7869596 -51.43286543 5.7889857 -46.6484375 5.91015625 C-44.97526354 5.93059615 -43.30208632 5.95076979 -41.62890625 5.97070312 C-39.00913605 6.01396673 -36.38958535 6.0621979 -33.77001953 6.11645508 C-21.82306988 6.3460736 -10.26072795 0 0 0 Z " fill="#FD9641" transform="translate(282,77)"/>
<path d="M0 0 C0.33 0.99 0.66 1.98 1 3 C0.20335938 3.70125 -0.59328125 4.4025 -1.4140625 5.125 C-7.31026957 10.3798098 -12.48045308 15.48611332 -17 22 C-17.86201152 23.07306449 -18.73651053 24.13625421 -19.625 25.1875 C-21.79564604 27.75800189 -23.9078865 30.3654867 -26 33 C-25.52766697 21.66400737 -15.77195773 14.32375647 -7.9375 7.09765625 C-3.30955882 3 -3.30955882 3 -1 3 C-0.67 2.01 -0.34 1.02 0 0 Z " fill="#FD8B2E" transform="translate(102,244)"/>
<path d="M0 0 C0.66 0 1.32 0 2 0 C5.53873353 6.61589313 6.1693114 11.93859817 6.125 19.375 C6.12306641 20.1592334 6.12113281 20.9434668 6.11914062 21.75146484 C6.06508524 29.19459118 5.61260326 36.58312486 5 44 C4.67 44 4.34 44 4 44 C3.67 31.79 3.34 19.58 3 7 C2.34 13.6 1.68 20.2 1 27 C0.67 27 0.34 27 0 27 C0 18.09 0 9.18 0 0 Z " fill="#FDAD6A" transform="translate(116,6)"/>
<path d="M0 0 C1.32 0 2.64 0 4 0 C3.38394021 4.00438862 1.24558699 6.70179411 -1 10 C-2.15570704 13.46712111 -2.32835293 16.5414956 -2.5625 20.1875 C-2.64628906 21.45980469 -2.73007813 22.73210937 -2.81640625 24.04296875 C-2.87699219 25.01878906 -2.93757812 25.99460938 -3 27 C-3.33 27 -3.66 27 -4 27 C-4.33 22.38 -4.66 17.76 -5 13 C-5.99 13.99 -6.98 14.98 -8 16 C-8.33 15.34 -8.66 14.68 -9 14 C-7.77731838 11.72888366 -6.51726078 9.60039342 -5.125 7.4375 C-4.74730469 6.83486328 -4.36960938 6.23222656 -3.98046875 5.61132812 C-1.19462386 1.19462386 -1.19462386 1.19462386 0 0 Z " fill="#FD9137" transform="translate(146,192)"/>
<path d="M0 0 C0.33 0 0.66 0 1 0 C1.02578125 0.61746094 1.0515625 1.23492187 1.078125 1.87109375 C1.45935947 7.56361753 2.57414646 11.89879928 5.078125 17.015625 C6.14141977 19.30441204 6.67742339 21.50003127 7 24 C1.54547824 19.5080409 -1.39842682 13.49946289 -4 7 C-4 5.68 -4 4.36 -4 3 C-2.68 3.33 -1.36 3.66 0 4 C0 2.68 0 1.36 0 0 Z " fill="#FD8829" transform="translate(217,256)"/>
<path d="M0 0 C0.67417969 0.14308594 1.34835937 0.28617188 2.04296875 0.43359375 C5.45452342 1.08706195 8.87264382 1.58027717 12.3125 2.0625 C14.19388672 2.32740234 14.19388672 2.32740234 16.11328125 2.59765625 C17.06589844 2.73042969 18.01851563 2.86320313 19 3 C19 3.66 19 4.32 19 5 C11.21792944 7.07521882 3.6091761 6.2545707 -4 4 C-4 3.67 -4 3.34 -4 3 C-2.02 3 -0.04 3 2 3 C2 2.34 2 1.68 2 1 C1.34 0.67 0.68 0.34 0 0 Z " fill="#FDB070" transform="translate(280,148)"/>
<path d="M0 0 C2.27076842 -0.02699725 4.54162821 -0.04639453 6.8125 -0.0625 C8.07707031 -0.07410156 9.34164062 -0.08570313 10.64453125 -0.09765625 C14 0 14 0 17 1 C17 2.32 17 3.64 17 5 C8.585 5.495 8.585 5.495 0 6 C-0.33 6.99 -0.66 7.98 -1 9 C-2.32 8.67 -3.64 8.34 -5 8 C-1.35883227 4.66226291 2.28607242 4.02135098 7 3 C7 2.67 7 2.34 7 2 C4.69 1.67 2.38 1.34 0 1 C0 0.67 0 0.34 0 0 Z " fill="#FD9947" transform="translate(96,165)"/>
<path d="M0 0 C0.33 0 0.66 0 1 0 C1.4454011 5.34481316 0.5942824 8.44694626 -1.9765625 13.1328125 C-3.19166055 15.34967077 -4.11315508 17.63508021 -5 20 C-5.33 18.68 -5.66 17.36 -6 16 C-6.99 16.99 -7.98 17.98 -9 19 C-9.66 18.67 -10.32 18.34 -11 18 C-10.62488281 17.53851562 -10.24976563 17.07703125 -9.86328125 16.6015625 C-5.7748968 11.39067452 -2.77953215 6.00182163 0 0 Z " fill="#FD9139" transform="translate(192,9)"/>
<path d="M0 0 C0.66 0.33 1.32 0.66 2 1 C1.34 1.66 0.68 2.32 0 3 C1.65 3 3.3 3 5 3 C2.74434885 6.38347672 1.94536421 6.60961771 -1.75 7.875 C-6.38732528 9.60895641 -9.4211776 11.60953667 -13 15 C-12.14535222 9.2311275 -8.19022214 6.0274901 -3.75 2.6875 C-2.50460752 1.78527224 -1.25612972 0.88721784 0 0 Z " fill="#FD9743" transform="translate(59,238)"/>
<path d="M0 0 C0.12117187 0.66386719 0.24234375 1.32773438 0.3671875 2.01171875 C1.22547708 6.53424459 2.03971311 10.79938524 4 15 C2.68 14.34 1.36 13.68 0 13 C0.33 15.64 0.66 18.28 1 21 C-1.56525333 16.05272572 -3.21989169 11.79149824 -3.625 6.1875 C-3.69976562 5.21167969 -3.77453125 4.23585937 -3.8515625 3.23046875 C-3.90054688 2.49441406 -3.94953125 1.75835937 -4 1 C-2 0 -2 0 0 0 Z " fill="#FC9037" transform="translate(182,182)"/>
<path d="M0 0 C0 0.99 0 1.98 0 3 C-0.7425 3.268125 -1.485 3.53625 -2.25 3.8125 C-4.86636554 4.94229421 -6.80187111 6.20893202 -9 8 C-9.33 7.34 -9.66 6.68 -10 6 C-12.31 8.64 -14.62 11.28 -17 14 C-17.66 13.67 -18.32 13.34 -19 13 C-17.58791833 11.39179588 -16.17013964 9.78859292 -14.75 8.1875 C-13.96109375 7.29417969 -13.1721875 6.40085938 -12.359375 5.48046875 C-8.20125899 1.1089395 -6.14788627 -0.41917406 0 0 Z " fill="#FD923A" transform="translate(140,190)"/>
<path d="M0 0 C1.65 0.33 3.3 0.66 5 1 C5 1.99 5 2.98 5 4 C4.37351562 4.27714844 3.74703125 4.55429688 3.1015625 4.83984375 C2.28429687 5.20207031 1.46703125 5.56429687 0.625 5.9375 C-0.18710938 6.29714844 -0.99921875 6.65679687 -1.8359375 7.02734375 C-3.23683785 7.6569903 -4.62625284 8.31312642 -6 9 C-6 8.01 -6 7.02 -6 6 C-6.66 5.67 -7.32 5.34 -8 5 C-3.375 2 -3.375 2 0 2 C0 1.34 0 0.68 0 0 Z " fill="#FD9036" transform="translate(123,184)"/>
<path d="M0 0 C0.66 0.33 1.32 0.66 2 1 C0.35 2.32 -1.3 3.64 -3 5 C-2.34 5.66 -1.68 6.32 -1 7 C-4.9813783 8.3271261 -8.85045227 8.06915913 -13 8 C-13.33 6.68 -13.66 5.36 -14 4 C-10.7 4 -7.4 4 -4 4 C-4 3.34 -4 2.68 -4 2 C-2.125 0.9375 -2.125 0.9375 0 0 Z " fill="#FD953F" transform="translate(198,115)"/>
<path d="M0 0 C10.06408706 0.34703748 10.06408706 0.34703748 13.6875 2.875 C15 5 15 5 15 8 C7.5 5 7.5 5 0 2 C0 1.34 0 0.68 0 0 Z " fill="#FD8D30" transform="translate(11,108)"/>
<path d="M0 0 C-1.66397558 4.24211059 -4.70471775 7.03622424 -7.875 10.1875 C-8.66970703 11.00637695 -8.66970703 11.00637695 -9.48046875 11.84179688 C-12.24437614 14.60913343 -14.15575291 16.28314457 -18 17 C-17.61328125 16.55269531 -17.2265625 16.10539062 -16.828125 15.64453125 C-14.48768743 12.92753813 -12.1741104 10.2285199 -10 7.375 C-3.78947368 0 -3.78947368 0 0 0 Z " fill="#FDE4CD" transform="translate(90,175)"/>
<path d="M0 0 C0.66 0 1.32 0 2 0 C2.55978184 1.57701982 3.09719401 3.16199242 3.625 4.75 C3.92664063 5.63171875 4.22828125 6.5134375 4.5390625 7.421875 C5.07333427 10.41017471 4.62433191 11.49923002 3 14 C2.34 12.35 1.68 10.7 1 9 C0.34 9 -0.32 9 -1 9 C-1.625 5.625 -1.625 5.625 -2 2 C-1.34 1.34 -0.68 0.68 0 0 Z " fill="#FD8929" transform="translate(188,173)"/>
<path d="M0 0 C3.40755272 1.92880342 6.74147635 3.8276509 10 6 C10.1875 8.625 10.1875 8.625 10 11 C7.48728801 9.88323912 5.6807446 8.72986081 3.5625 6.9375 C0.91128479 4.93292265 -0.74294429 4.37223494 -4 4 C-2.68 3.34 -1.36 2.68 0 2 C0 1.34 0 0.68 0 0 Z " fill="#FD8827" transform="translate(99,137)"/>
<path d="M0 0 C-1.25125384 3.75376152 -2.5652404 4.24073289 -6 6 C-6.66 6 -7.32 6 -8 6 C-8.33 6.99 -8.66 7.98 -9 9 C-10.98 9.33 -12.96 9.66 -15 10 C-15 9.01 -15 8.02 -15 7 C-14.34 7 -13.68 7 -13 7 C-13 6.34 -13 5.68 -13 5 C-12.37351562 4.72285156 -11.74703125 4.44570312 -11.1015625 4.16015625 C-10.28429687 3.79792969 -9.46703125 3.43570313 -8.625 3.0625 C-7.81289063 2.70285156 -7.00078125 2.34320313 -6.1640625 1.97265625 C-1.7751004 0 -1.7751004 0 0 0 Z " fill="#FDA257" transform="translate(282,77)"/>
<path d="M0 0 C0.33 1.32 0.66 2.64 1 4 C-3.29 4.66 -7.58 5.32 -12 6 C-12 5.34 -12 4.68 -12 4 C-12.66 3.34 -13.32 2.68 -14 2 C-4.58997722 -0.29612756 -4.58997722 -0.29612756 0 0 Z " fill="#FD8A2B" transform="translate(119,176)"/>
<path d="M0 0 C15.74487472 -0.3690205 15.74487472 -0.3690205 23 2 C20.50935112 2.68707555 18.62113708 3 16 3 C16.33 3.66 16.66 4.32 17 5 C8.585 3.02 8.585 3.02 0 1 C0 0.67 0 0.34 0 0 Z " fill="#FD8E34" transform="translate(7,146)"/>
<path d="M0 0 C-0.33 0.33 -0.66 0.66 -1 1 C1.64 1.33 4.28 1.66 7 2 C7 2.33 7 2.66 7 3 C5.87980469 3.12117187 4.75960937 3.24234375 3.60546875 3.3671875 C2.13276364 3.53603267 0.66010996 3.70532697 -0.8125 3.875 C-1.55048828 3.95363281 -2.28847656 4.03226563 -3.04882812 4.11328125 C-6.71506181 4.54460286 -8.87951745 4.9196783 -12 7 C-12.99 6.67 -13.98 6.34 -15 6 C-12.61827612 3.26455475 -10.29334709 2.07454642 -6.9375 0.75 C-6.05964844 0.39421875 -5.18179688 0.0384375 -4.27734375 -0.328125 C-2 -1 -2 -1 0 0 Z " fill="#FD9138" transform="translate(40,213)"/>
<path d="M0 0 C0.99 0 1.98 0 3 0 C5.47987907 7.4396372 4.7795968 16.7035584 2 24 C0.79232376 21.58464752 1.02206964 20.52153592 1.33984375 17.8671875 C1.43330078 17.06152344 1.52675781 16.25585938 1.62304688 15.42578125 C1.77870117 14.16314453 1.77870117 14.16314453 1.9375 12.875 C2.08735352 11.60076172 2.08735352 11.60076172 2.24023438 10.30078125 C2.48809384 8.19987723 2.74335185 6.09984851 3 4 C2.34 4 1.68 4 1 4 C1 6.64 1 9.28 1 12 C0.67 12 0.34 12 0 12 C0 8.04 0 4.08 0 0 Z " fill="#FDD1AA" transform="translate(153,0)"/>
<path d="M0 0 C3.37705625 0.53725895 6.696686 1.11064623 10 2 C10 2.66 10 3.32 10 4 C10.99 4 11.98 4 13 4 C13 4.99 13 5.98 13 7 C11.33388095 7.042721 9.66617115 7.04063832 8 7 C7.67 6.67 7.34 6.34 7 6 C5.48530552 5.76807135 3.96245438 5.58784762 2.4375 5.4375 C1.61121094 5.35371094 0.78492187 5.26992187 -0.06640625 5.18359375 C-0.70449219 5.12300781 -1.34257813 5.06242188 -2 5 C-2 4.67 -2 4.34 -2 4 C1.465 3.505 1.465 3.505 5 3 C3.35 2.67 1.7 2.34 0 2 C0 1.34 0 0.68 0 0 Z " fill="#FD923A" transform="translate(96,151)"/>
<path d="M0 0 C-1.28519565 2.86697492 -2.57129254 4.97607712 -5 7 C-5.66 7 -6.32 7 -7 7 C-6.938125 8.0209375 -6.938125 8.0209375 -6.875 9.0625 C-7.0832457 13.95627394 -8.28760477 17.93140716 -11 22 C-10.71695263 13.25383619 -9.81882985 8.26810395 -3.875 1.625 C-2 0 -2 0 0 0 Z " fill="#FD9F51" transform="translate(208,66)"/>
<path d="M0 0 C0.66 0 1.32 0 2 0 C5.07692308 5.41538462 5.07692308 5.41538462 4.6875 8.375 C4.460625 8.91125 4.23375 9.4475 4 10 C3.67 9.01 3.34 8.02 3 7 C2.34 13.6 1.68 20.2 1 27 C0.67 27 0.34 27 0 27 C0 18.09 0 9.18 0 0 Z " fill="#FDBF8A" transform="translate(116,6)"/>
<path d="M0 0 C0.33 1.32 0.66 2.64 1 4 C0.34 4 -0.32 4 -1 4 C-0.979375 5.19625 -0.95875 6.3925 -0.9375 7.625 C-0.93117429 11.18004869 -1.30111125 14.50555624 -2 18 C-2.99 18 -3.98 18 -5 18 C-5.67090715 10.75420281 -3.58125682 6.24161903 0 0 Z " fill="#FDAA65" transform="translate(116,272)"/>
<path d="M0 0 C1.32 0 2.64 0 4 0 C4 0.66 4 1.32 4 2 C4.825 1.773125 5.65 1.54625 6.5 1.3125 C11.14112593 0.89811376 13.74724665 2.16691666 18 4 C18 4.66 18 5.32 18 6 C11.18012971 5.56699236 6.08356979 4.09212176 0 1 C0 0.67 0 0.34 0 0 Z " fill="#FC9844" transform="translate(274,185)"/>
<path d="M0 0 C1 2 1 2 0.5625 4 C-0.24928147 8.32950117 -0.07675764 12.60775747 0 17 C0.33 15.35 0.66 13.7 1 12 C1.33 12 1.66 12 2 12 C2 15.3 2 18.6 2 22 C1.01 21.67 0.02 21.34 -1 21 C-2.39529581 18.20940838 -2.16973354 15.86268312 -2.1875 12.75 C-2.20167969 11.63109375 -2.21585938 10.5121875 -2.23046875 9.359375 C-1.99467313 5.92235416 -1.22846663 3.20469555 0 0 Z " fill="#FDDFC5" transform="translate(149,276)"/>
<path d="M0 0 C1 2 1 2 0.4375 4.4375 C-1.48324245 7.86143219 -3.34994124 8.68597885 -7 10 C-9.375 9.6875 -9.375 9.6875 -11 9 C-11 8.34 -11 7.68 -11 7 C-9.39125 6.38125 -9.39125 6.38125 -7.75 5.75 C-4.47734926 4.36260851 -2.34482838 2.72000092 0 0 Z " fill="#FC8727" transform="translate(187,105)"/>
<path d="M0 0 C0.66 0 1.32 0 2 0 C1.44010697 3.99012371 0.24330232 6.5255052 -2.0625 9.8125 C-2.88427734 10.99779297 -2.88427734 10.99779297 -3.72265625 12.20703125 C-4.35494141 13.09455078 -4.35494141 13.09455078 -5 14 C-5.33 13.34 -5.66 12.68 -6 12 C-6.66 11.67 -7.32 11.34 -8 11 C-6.8553125 9.6696875 -6.8553125 9.6696875 -5.6875 8.3125 C-3.98059869 6.2825411 -2.66756177 4.43362376 -1.3125 2.125 C-0.6628125 1.073125 -0.6628125 1.073125 0 0 Z " fill="#FC8728" transform="translate(227,22)"/>
<path d="M0 0 C0.66 0 1.32 0 2 0 C2.09945415 6.11090483 2.0712828 11.97403427 1 18 C0.34 16.68 -0.32 15.36 -1 14 C-1.99 14.495 -1.99 14.495 -3 15 C-2.690625 14.01 -2.38125 13.02 -2.0625 12 C-0.91566793 8.02268878 -0.43287644 4.11232621 0 0 Z " fill="#FD9239" transform="translate(154,4)"/>
<path d="M0 0 C0.66 0.99 1.32 1.98 2 3 C2.66 2.67 3.32 2.34 4 2 C3.01 6.62 2.02 11.24 1 16 C0.34 15.67 -0.32 15.34 -1 15 C-1.18451025 4.44191344 -1.18451025 4.44191344 0 0 Z " fill="#FD933B" transform="translate(149,278)"/>
<path d="M0 0 C0.33 0.66 0.66 1.32 1 2 C0.67 2.66 0.34 3.32 0 4 C0.66 4.33 1.32 4.66 2 5 C-0.1875 7.0625 -0.1875 7.0625 -3 9 C-5.8125 8.75 -5.8125 8.75 -8 8 C-8 7.34 -8 6.68 -8 6 C-7.05125 5.566875 -6.1025 5.13375 -5.125 4.6875 C-1.79958063 3.20697799 -1.79958063 3.20697799 0 0 Z " fill="#FD8F35" transform="translate(173,100)"/>
<path d="M0 0 C0.66 0.33 1.32 0.66 2 1 C-0.09814671 3.15202209 -2.20302055 5.29663616 -4.3125 7.4375 C-5.20485352 8.35499023 -5.20485352 8.35499023 -6.11523438 9.29101562 C-6.69208984 9.87431641 -7.26894531 10.45761719 -7.86328125 11.05859375 C-8.65665894 11.86768188 -8.65665894 11.86768188 -9.46606445 12.69311523 C-11 14 -11 14 -14 15 C-11.88614911 8.65844733 -4.94651169 4.25915522 0 0 Z " fill="#FC9540" transform="translate(108,193)"/>
<path d="M0 0 C0.66 0.33 1.32 0.66 2 1 C-5.11389522 9.6309795 -5.11389522 9.6309795 -10 12 C-8.43873668 8.16780823 -5.97133075 5.82638778 -3 3 C-2.401875 2.401875 -1.80375 1.80375 -1.1875 1.1875 C-0.795625 0.795625 -0.40375 0.40375 0 0 Z " fill="#FDDEC3" transform="translate(105,183)"/>
<path d="M0 0 C5.61 0 11.22 0 17 0 C17 0.33 17 0.66 17 1 C11.06 1.495 11.06 1.495 5 2 C7.31 2.33 9.62 2.66 12 3 C12 3.33 12 3.66 12 4 C8.37 4 4.74 4 1 4 C0.67 2.68 0.34 1.36 0 0 Z " fill="#FDCFA7" transform="translate(5,145)"/>
<path d="M0 0 C3.36720387 1.39332574 4.9859524 2.9789286 7 6 C6.01 7.485 6.01 7.485 5 9 C3.02 7.68 1.04 6.36 -1 5 C-0.67 3.35 -0.34 1.7 0 0 Z " fill="#FD9642" transform="translate(195,151)"/>
<path d="M0 0 C5.28 0.33 10.56 0.66 16 1 C16 1.33 16 1.66 16 2 C11.03926578 3.32286246 6.08888488 3.08893197 1 3 C0.67 2.01 0.34 1.02 0 0 Z " fill="#FD9036" transform="translate(283,151)"/>
<path d="M0 0 C2.475 0.99 2.475 0.99 5 2 C5.33 1.34 5.66 0.68 6 0 C7.5 1.1875 7.5 1.1875 9 3 C9.1875 5.6875 9.1875 5.6875 9 8 C8.01 8 7.02 8 6 8 C5.67 7.01 5.34 6.02 5 5 C3.37347684 3.29413425 1.70993434 1.6222454 0 0 Z " fill="#FD953F" transform="translate(103,128)"/>
<path d="M0 0 C0.66 0.99 1.32 1.98 2 3 C1.4375 5.625 1.4375 5.625 0 8 C-2.625 8.8125 -2.625 8.8125 -5 9 C-4.42647107 5.12867972 -2.51295648 2.91827204 0 0 Z " fill="#FD923A" transform="translate(159,98)"/>
<path d="M0 0 C0.47050781 0.34933594 0.94101562 0.69867188 1.42578125 1.05859375 C2.04839844 1.51363281 2.67101562 1.96867188 3.3125 2.4375 C3.92738281 2.88996094 4.54226563 3.34242188 5.17578125 3.80859375 C7.09677101 5.17336308 7.09677101 5.17336308 10 6 C10 6.66 10 7.32 10 8 C4.84535266 7.51675181 1.18449681 4.81389239 -3 2 C-2.01 1.34 -1.02 0.68 0 0 Z " fill="#FDA45A" transform="translate(269,219)"/>
<path d="M0 0 C0.94875 0.165 1.8975 0.33 2.875 0.5 C7.5763877 1.18541792 12.26003286 1.08583441 17 1 C16.67 1.66 16.34 2.32 16 3 C11.01477501 4.66174166 6.70055962 4.81485148 2 2.5625 C1.34 2.046875 0.68 1.53125 0 1 C0 0.67 0 0.34 0 0 Z " fill="#FDB070" transform="translate(50,167)"/>
<path d="M0 0 C0.66 0 1.32 0 2 0 C1.82374165 2.37948772 1.30280227 3.70225849 -0.40234375 5.37890625 C-1.90649092 6.62115486 -3.45129851 7.81376056 -5 9 C-5.99 8.34 -6.98 7.68 -8 7 C-2.25 2 -2.25 2 0 2 C0 1.34 0 0.68 0 0 Z " fill="#FDAB66" transform="translate(257,46)"/>
<path d="M0 0 C2.94391584 2.7889729 5.49414733 5.81688985 8 9 C8 9.66 8 10.32 8 11 C3.70048197 9.40758592 1.60328053 6.64459275 -1 3 C-0.67 2.01 -0.34 1.02 0 0 Z " fill="#FDA358" transform="translate(247,246)"/>
<path d="M0 0 C0.66 0.33 1.32 0.66 2 1 C1.34 1.66 0.68 2.32 0 3 C1.65 3 3.3 3 5 3 C2.42595029 6.86107457 0.38979741 6.94319692 -4 8 C-3.67 7.34 -3.34 6.68 -3 6 C-3.66 5.34 -4.32 4.68 -5 4 C-3.35 2.68 -1.7 1.36 0 0 Z " fill="#FDA963" transform="translate(59,238)"/>
<path d="M0 0 C6.33393082 -0.34548714 11.10261508 0.70657253 17 3 C11.04243774 4.73003446 5.70049238 3.08554599 0 1 C0 0.67 0 0.34 0 0 Z " fill="#FDCEA6" transform="translate(211,194)"/>
<path d="M0 0 C0.99 0 1.98 0 3 0 C3.33 0.66 3.66 1.32 4 2 C6.01669827 3.13350534 6.01669827 3.13350534 8 4 C7.01 4.495 7.01 4.495 6 5 C6.33 5.66 6.66 6.32 7 7 C5.02 6.34 3.04 5.68 1 5 C0.67 3.35 0.34 1.7 0 0 Z " fill="#FD9A48" transform="translate(194,140)"/>
<path d="M0 0 C0.66 0.33 1.32 0.66 2 1 C0.90344712 2.31886772 -0.20253423 3.62990057 -1.3125 4.9375 C-1.92738281 5.66839844 -2.54226562 6.39929688 -3.17578125 7.15234375 C-5 9 -5 9 -8 10 C-6.34908222 5.70761377 -3.26245434 3.1206085 0 0 Z " fill="#FDE1C8" transform="translate(88,262)"/>
<path d="M0 0 C1.07765625 0.00902344 2.1553125 0.01804688 3.265625 0.02734375 C4.08546875 0.03894531 4.9053125 0.05054688 5.75 0.0625 C5.75 0.3925 5.75 0.7225 5.75 1.0625 C0.8 1.3925 -4.15 1.7225 -9.25 2.0625 C-9.58 3.0525 -9.91 4.0425 -10.25 5.0625 C-11.57 4.7325 -12.89 4.4025 -14.25 4.0625 C-9.55200171 0.20342998 -6.00681221 -0.06529144 0 0 Z " fill="#FDBB83" transform="translate(105.25,168.9375)"/>
<path d="M0 0 C-1.65 1.32 -3.3 2.64 -5 4 C-5 3.34 -5 2.68 -5 2 C-5.7425 2.350625 -6.485 2.70125 -7.25 3.0625 C-10.21122875 4.0720098 -11.12062561 3.87980884 -14 3 C-12.42274653 2.29866401 -10.83788667 1.614417 -9.25 0.9375 C-7.92742187 0.36322266 -7.92742187 0.36322266 -6.578125 -0.22265625 C-3.84743691 -1.04600008 -2.63098653 -0.9773992 0 0 Z " fill="#FD8B2E" transform="translate(252,55)"/>
<path d="M0 0 C0 0.33 0 0.66 0 1 C-0.67546875 1.10957031 -1.3509375 1.21914062 -2.046875 1.33203125 C-2.93890625 1.49058594 -3.8309375 1.64914063 -4.75 1.8125 C-5.63171875 1.96332031 -6.5134375 2.11414063 -7.421875 2.26953125 C-10.07333024 2.84385678 -10.07333024 2.84385678 -12.078125 4.63671875 C-14 6 -14 6 -16.25 5.6875 C-16.8275 5.460625 -17.405 5.23375 -18 5 C-11.75838097 1.41874318 -7.24579719 -0.67090715 0 0 Z " fill="#FDBE89" transform="translate(260,117)"/>
<path d="M0 0 C0.33 0.66 0.66 1.32 1 2 C-0.1875 5.5625 -0.1875 5.5625 -2 9 C-4.1875 9.9375 -4.1875 9.9375 -6 10 C-5.38722388 7.03824877 -4.74627478 5.61941217 -3 3 C-2.67 3.66 -2.34 4.32 -2 5 C-1.34 3.35 -0.68 1.7 0 0 Z " fill="#FD9138" transform="translate(149,97)"/>
<path d="M0 0 C0.66 0.33 1.32 0.66 2 1 C-0.97 4.3 -3.94 7.6 -7 11 C-7.66 10.67 -8.32 10.34 -9 10 C-6.03 6.7 -3.06 3.4 0 0 Z " fill="#FC9945" transform="translate(130,193)"/>
<path d="M0 0 C4.2742558 1.5830577 6.26531794 4.50568404 9 8 C8.34 8.66 7.68 9.32 7 10 C5.82739389 8.71372289 4.6620717 7.42080217 3.5 6.125 C2.8503125 5.40570313 2.200625 4.68640625 1.53125 3.9453125 C0 2 0 2 0 0 Z " fill="#FDA258" transform="translate(49,42)"/>
<path d="M0 0 C1.96217707 2.9432656 3.58240698 5.75978738 5 9 C4.67 9.99 4.34 10.98 4 12 C-1.05908096 5.92560175 -1.05908096 5.92560175 -0.8125 2.0625 C-0.544375 1.381875 -0.27625 0.70125 0 0 Z " fill="#FDA65F" transform="translate(219,268)"/>
<path d="M0 0 C2.09749995 2.35968744 2.96905704 3.54616994 3.1875 6.75 C3.125625 7.4925 3.06375 8.235 3 9 C-0.73639216 7.75453595 -1.18756513 6.36595047 -3 3 C-2.34 3 -1.68 3 -1 3 C-0.67 2.01 -0.34 1.02 0 0 Z " fill="#FD8B2E" transform="translate(244,240)"/>
<path d="M0 0 C0.66 0 1.32 0 2 0 C0.34908222 4.29238623 -2.73754566 6.8793915 -6 10 C-6.66 9.67 -7.32 9.34 -8 9 C-7.04882866 7.8274869 -6.08882991 6.66212985 -5.125 5.5 C-4.32449219 4.52546875 -4.32449219 4.52546875 -3.5078125 3.53125 C-2.76144531 2.77328125 -2.76144531 2.77328125 -2 2 C-1.34 2 -0.68 2 0 2 C0 1.34 0 0.68 0 0 Z " fill="#FD9239" transform="translate(77,193)"/>
<path d="M0 0 C0.66 0.33 1.32 0.66 2 1 C0.88200014 2.33920838 -0.24461897 3.67122556 -1.375 5 C-2.00148438 5.7425 -2.62796875 6.485 -3.2734375 7.25 C-4.12808594 8.11625 -4.12808594 8.11625 -5 9 C-5.66 9 -6.32 9 -7 9 C-5.44499019 5.18315774 -2.96404505 2.80804268 0 0 Z " fill="#FDE2CA" transform="translate(120,190)"/>
<path d="M0 0 C3 1 3 1 4.1875 3.0625 C4.455625 3.701875 4.72375 4.34125 5 5 C3.68 4.67 2.36 4.34 1 4 C1.66 5.65 2.32 7.3 3 9 C0.9375 7.3125 0.9375 7.3125 -1 5 C-0.75 2.25 -0.75 2.25 0 0 Z " fill="#FCA359" transform="translate(193,163)"/>
<path d="M0 0 C0.66 0 1.32 0 2 0 C2.33 1.65 2.66 3.3 3 5 C2.01 4.67 1.02 4.34 0 4 C0.33 5.65 0.66 7.3 1 9 C0.34 9 -0.32 9 -1 9 C-1.625 5.625 -1.625 5.625 -2 2 C-1.34 1.34 -0.68 0.68 0 0 Z " fill="#FDA862" transform="translate(188,173)"/>
<path d="M0 0 C0.66 0.33 1.32 0.66 2 1 C-3.14285714 7.57142857 -3.14285714 7.57142857 -7 9 C-5.44499019 5.18315774 -2.96404505 2.80804268 0 0 Z " fill="#FDDDBF" transform="translate(136,193)"/>
<path d="M0 0 C2.475 0.495 2.475 0.495 5 1 C5 2.98 5 4.96 5 7 C3.35 6.67 1.7 6.34 0 6 C0 5.34 0 4.68 0 4 C0.99 4 1.98 4 3 4 C3 3.01 3 2.02 3 1 C2.01 0.67 1.02 0.34 0 0 Z " fill="#FDCEA6" transform="translate(106,154)"/>
<path d="M0 0 C4.95 0 9.9 0 15 0 C15 0.33 15 0.66 15 1 C14.09507812 1.09087891 14.09507812 1.09087891 13.171875 1.18359375 C11.97304687 1.30927734 11.97304687 1.30927734 10.75 1.4375 C9.96109375 1.51871094 9.1721875 1.59992188 8.359375 1.68359375 C6.17635361 1.97634993 4.1226818 2.42064419 2 3 C1.34 2.01 0.68 1.02 0 0 Z " fill="#FD831E" transform="translate(199,144)"/>
<path d="M0 0 C2.62187494 1.04874998 3.79371361 1.64931313 5.25 4.125 C5.4975 4.74375 5.745 5.3625 6 6 C5.01 6 4.02 6 3 6 C2.67 6.66 2.34 7.32 2 8 C0.74335022 5.09399739 0 3.20395416 0 0 Z " fill="#FD8524" transform="translate(57,50)"/>
<path d="M0 0 C1.81325551 0.11351517 3.62563357 0.24112961 5.4375 0.375 C6.95150391 0.47941406 6.95150391 0.47941406 8.49609375 0.5859375 C9.73552734 0.79089844 9.73552734 0.79089844 11 1 C11.33 1.66 11.66 2.32 12 3 C10.56260487 3.02712066 9.12506137 3.04645067 7.6875 3.0625 C6.48673828 3.07990234 6.48673828 3.07990234 5.26171875 3.09765625 C3 3 3 3 0 2 C0 1.34 0 0.68 0 0 Z " fill="#FDBA82" transform="translate(11,108)"/>
<path d="M0 0 C3.77545388 1.09068668 6.47043472 1.9083091 9 5 C8.34 5.66 7.68 6.32 7 7 C5.83040013 6.02433888 4.66438823 5.044375 3.5 4.0625 C2.8503125 3.51722656 2.200625 2.97195312 1.53125 2.41015625 C1.0259375 1.94480469 0.520625 1.47945313 0 1 C0 0.67 0 0.34 0 0 Z " fill="#FD9037" transform="translate(28,74)"/>
<path d="M0 0 C1.32 0 2.64 0 4 0 C3.625 1.9375 3.625 1.9375 3 4 C2.01 4.495 2.01 4.495 1 5 C1 4.34 1 3.68 1 3 C0.01 3.33 -0.98 3.66 -2 4 C-1.34 2.68 -0.68 1.36 0 0 Z " fill="#FDA459" transform="translate(146,192)"/>
<path d="M0 0 C1.61949011 2.57213134 2.04408751 3.67669159 1.625 6.75 C1.41875 7.4925 1.2125 8.235 1 9 C0.01 8.67 -0.98 8.34 -2 8 C-1.34 5.36 -0.68 2.72 0 0 Z " fill="#FD821E" transform="translate(161,92)"/>
<path d="M0 0 C0.33 0 0.66 0 1 0 C1 3.3 1 6.6 1 10 C0.01 9.67 -0.98 9.34 -2 9 C-1.855625 8.443125 -1.71125 7.88625 -1.5625 7.3125 C-0.97230872 4.88615805 -0.476571 2.45093655 0 0 Z " fill="#FDC492" transform="translate(150,288)"/>
<path d="M0 0 C0.6875 1.625 0.6875 1.625 1 4 C-0.4375 7.25 -0.4375 7.25 -2 10 C-2.6875 8.375 -2.6875 8.375 -3 6 C-1.5625 2.75 -1.5625 2.75 0 0 Z " fill="#FCB273" transform="translate(79,267)"/>
<path d="M0 0 C4.13333333 6.2 4.13333333 6.2 3.625 9.25 C3.41875 9.8275 3.2125 10.405 3 11 C0.60236815 8.60236815 0.65719414 7.66726502 0.375 4.375 C0.30023438 3.55773437 0.22546875 2.74046875 0.1484375 1.8984375 C0.09945312 1.27195312 0.05046875 0.64546875 0 0 Z " fill="#FDA862" transform="translate(120,93)"/>
<path d="M0 0 C0.99 0.33 1.98 0.66 3 1 C4.1875 3.5625 4.1875 3.5625 5 6 C4.01 6.66 3.02 7.32 2 8 C1.34 5.36 0.68 2.72 0 0 Z " fill="#FCA358" transform="translate(82,22)"/>
<path d="M0 0 C0.66 0 1.32 0 2 0 C1.25 4.75 1.25 4.75 -1 7 C-1.66 6.34 -2.32 5.68 -3 5 C-1.625 2.5 -1.625 2.5 0 0 Z " fill="#FDB77C" transform="translate(227,22)"/>
</svg>
